<svg xmlns="http://www.w3.org/2000/svg" version="1.1" xmlns:xlink="http://www.w3.org/1999/xlink" xmlns:svgjs="http://svgjs.dev/svgjs" width="1920" height="1080" preserveAspectRatio="none" viewBox="0 0 1920 1080"><g mask="url(&quot;#SvgjsMask1847&quot;)" fill="none"><rect width="1920" height="1080" x="0" y="0" fill="rgba(244, 244, 244, 1)"></rect><path d="M2016 1080L0 1080 L0 353.45Q158.24 415.69, 96 573.93Q78.35 460.27, 192 442.62Q204.21 358.83, 288 371.04Q325.98 313.02, 384 351Q424.41 295.41, 480 335.83Q542.95 302.78, 576 365.73Q677.82 307.55, 736 409.37Q784.12 297.49, 896 345.6Q959.07 312.67, 992 375.74Q1144.74 368.49, 1152 521.23Q1194.33 467.56, 1248 509.89Q1268.49 370.38, 1408 390.87Q1476.56 299.43, 1568 367.99Q1641.27 345.26, 1664 418.54Q1744.82 403.36, 1760 484.18Q1786.57 414.75, 1856 441.31Q1879.4 304.71, 2016 328.11z" fill="rgba(244, 244, 244, 1)"></path><path d="M1984 1080L0 1080 L0 603.07Q72.48 579.56, 96 652.04Q103.31 563.35, 192 570.66Q254.79 473.45, 352 536.25Q406.5 494.75, 448 549.25Q558.23 563.48, 544 673.7Q520.07 553.77, 640 529.84Q682.52 476.36, 736 518.88Q851.03 473.91, 896 588.94Q1048.92 581.86, 1056 734.78Q1081.38 600.16, 1216 625.55Q1233.91 547.46, 1312 565.37Q1383.2 476.58, 1472 547.78Q1540.51 520.29, 1568 588.8Q1579.78 504.58, 1664 516.35Q1758.13 450.48, 1824 544.61Q1982.89 543.5, 1984 702.4z" fill="rgba(213, 229, 218, 1)"></path><path d="M1984 1080L0 1080 L0 958.33Q2.4 864.73, 96 867.13Q160.93 772.06, 256 836.99Q314.64 735.63, 416 794.28Q453.54 671.82, 576 709.36Q641.74 679.1, 672 744.83Q833.38 746.21, 832 907.58Q819.47 799.05, 928 786.51Q947.64 710.15, 1024 729.79Q1088.66 698.45, 1120 763.12Q1174.59 657.7, 1280 712.29Q1346.67 682.96, 1376 749.63Q1495.01 708.64, 1536 827.65Q1632.83 828.48, 1632 925.31Q1589.47 786.78, 1728 744.26Q1757.46 677.72, 1824 707.18Q1933.22 656.4, 1984 765.63z" fill="rgba(177, 217, 189, 1)"></path><path d="M1952 1080L0 1080 L0 1147.53Q-29.67 957.86, 160 928.18Q227.05 835.23, 320 902.28Q373.4 859.68, 416 913.08Q517.97 919.05, 512 1021.02Q623.85 1036.87, 608 1148.72Q589.99 970.71, 768 952.7Q834.41 859.11, 928 925.52Q1014.97 916.49, 1024 1003.45Q1146.83 966.28, 1184 1089.11Q1204.92 1014.03, 1280 1034.94Q1344.48 939.42, 1440 1003.9Q1565.88 969.78, 1600 1095.66Q1635.27 1034.93, 1696 1070.21Q1687.15 965.36, 1792 956.51Q1858.19 862.7, 1952 928.9z" fill="rgba(137, 183, 151, 1)"></path></g><defs><mask id="SvgjsMask1847"><rect width="1920" height="1080" fill="#ffffff"></rect></mask></defs></svg>