<svg xmlns="http://www.w3.org/2000/svg" version="1.1" xmlns:xlink="http://www.w3.org/1999/xlink" xmlns:svgjs="http://svgjs.dev/svgjs" width="1920" height="1080" preserveAspectRatio="none" viewBox="0 0 1920 1080"><g mask="url(&quot;#SvgjsMask1506&quot;)" fill="none"><rect width="1920" height="1080" x="0" y="0" fill="rgba(244, 244, 244, 1)"></rect><path d="M1984 1080L0 1080 L0 736Q29.22 605.22, 160 634.44Q214.13 592.58, 256 646.71Q351.18 581.89, 416 677.08Q517.36 618.44, 576 719.81Q615.55 663.36, 672 702.91Q706.72 577.63, 832 612.34Q890.82 575.16, 928 633.99Q1022.75 632.75, 1024 727.5Q1089.71 633.21, 1184 698.92Q1207.3 626.22, 1280 649.53Q1342.1 615.63, 1376 677.72Q1485.04 626.76, 1536 735.8Q1567.08 606.88, 1696 637.95Q1758.83 604.78, 1792 667.6Q1882.09 661.68, 1888 751.77Q1924.76 692.52, 1984 729.28z" fill="rgba(244, 244, 244, 1)"></path><path d="M1984 1080L0 1080 L0 851.57Q25.39 716.97, 160 742.36Q200.82 687.18, 256 728Q366.99 678.99, 416 789.98Q508.38 722.36, 576 814.73Q649.89 792.63, 672 866.52Q682.01 780.53, 768 790.54Q807.35 733.89, 864 773.24Q936.09 685.33, 1024 757.42Q1114.51 751.93, 1120 842.45Q1180.99 743.45, 1280 804.44Q1338.07 766.51, 1376 824.57Q1412.62 701.19, 1536 737.81Q1637.89 679.7, 1696 781.59Q1730.11 719.7, 1792 753.81Q1827.73 693.53, 1888 729.26Q1969.06 714.32, 1984 795.38z" fill="rgba(229, 243, 233, 1)"></path><path d="M2048 1080L0 1080 L0 1003.93Q37.64 881.57, 160 919.2Q231.84 831.04, 320 902.88Q400.4 887.28, 416 967.68Q454.06 845.74, 576 883.8Q679.81 827.61, 736 931.42Q791.94 891.36, 832 947.3Q868.25 823.54, 992 859.79Q1080.82 788.61, 1152 877.43Q1245.5 810.93, 1312 904.44Q1428.13 860.57, 1472 976.7Q1563.69 908.39, 1632 1000.09Q1633.03 841.12, 1792 842.15Q1887.28 841.43, 1888 936.71Q1973.85 862.56, 2048 948.41z" fill="rgba(203, 227, 210, 1)"></path><path d="M1952 1080L0 1080 L0 1089.14Q30.43 959.57, 160 990Q217.96 951.96, 256 1009.93Q380.49 974.42, 416 1098.91Q473.95 996.87, 576 1054.82Q611.04 993.86, 672 1028.89Q691.06 951.95, 768 971.01Q823.48 930.49, 864 985.97Q967.21 929.18, 1024 1032.39Q1098.86 1011.25, 1120 1086.11Q1156.79 962.89, 1280 999.68Q1373.14 932.83, 1440 1025.97Q1538.36 964.33, 1600 1062.68Q1700.14 1002.82, 1760 1102.96Q1818.68 1065.64, 1856 1124.32Q1862.84 1035.15, 1952 1041.99z" fill="rgba(137, 183, 151, 1)"></path></g><defs><mask id="SvgjsMask1506"><rect width="1920" height="1080" fill="#ffffff"></rect></mask></defs></svg>